<?xml version="1.0" encoding="UTF-8"?><svg id="_レイヤー_2" xmlns="http://www.w3.org/2000/svg" width="233.74" height="26" viewBox="0 0 233.74 26"><defs><style>.cls-1{fill:none;}.cls-2{fill:#696969;}.cls-3{fill:#c00;}</style></defs><g id="_レイヤー_1-2"><g><g><path class="cls-3" d="m28.87,18.99c-1.89,2.71-5.03,4.47-8.58,4.47-5.78,0-10.46-4.68-10.46-10.46S14.51,2.54,20.29,2.54c2.04,0,3.94.58,5.55,1.59l-5.54,8.87,10.4-6c-1.67-2.59-4.15-4.6-7.08-5.68-2.32-.85-4.83-1.32-7.45-1.32s-5.12.47-7.44,1.32c-2.39.88-4.49,2.39-6.08,4.32C.99,7.64,0,10.2,0,13s.99,5.36,2.64,7.36c1.59,1.93,3.69,3.44,6.08,4.32,2.32.85,4.83,1.32,7.44,1.32,1.67,0,3.29-.19,4.85-.55,3.24-.75,6.11-2.47,8.29-4.84l-.44-1.63Z"/><path class="cls-3" d="m72.77,4.44c-.57,0-1.12.13-1.61.36l-6.05,2.82c-.3-1.8-1.87-3.18-3.75-3.18-.58,0-1.12.13-1.61.36l-7.4,3.45h5.2v17.12h7.61v-15.22c0-1.05.85-1.9,1.9-1.9s1.9.85,1.9,1.9v15.22h7.61V8.24c0-2.1-1.7-3.81-3.81-3.81Z"/><path class="cls-3" d="m120.49,4.44c-.57,0-1.12.13-1.61.36l-6.05,2.82c-.3-1.8-1.86-3.18-3.75-3.18-.57,0-1.12.13-1.61.36l-7.4,3.45h5.2v17.12h7.61v-15.22c0-1.05.85-1.9,1.9-1.9s1.9.85,1.9,1.9v15.22h7.61V8.24c0-2.1-1.7-3.81-3.81-3.81Z"/><path class="cls-3" d="m90.52,4.44c-5.95,0-10.78,4.83-10.78,10.78s4.83,10.78,10.78,10.78,10.78-4.83,10.78-10.78-4.83-10.78-10.78-10.78Zm2.46,19.97c-1.27.34-2.57-.41-2.91-1.68l-3.69-13.78c-.34-1.27.41-2.57,1.68-2.91,1.27-.34,2.57.41,2.91,1.68l3.69,13.78c.34,1.27-.41,2.57-1.68,2.91Z"/><path class="cls-3" d="m45.34,19.02c0,2.1-1.7,3.81-3.81,3.81s-3.81-1.7-3.81-3.81,1.7-3.81,3.81-3.81c2.1,0,3.81,1.7,3.81,3.81Zm1.95,6.34h7.61l-4.38-16.34c-.71-2.64-3.11-4.58-5.97-4.58-.74,0-1.46.13-2.12.37l-9.43,3.43h9.7l1.66,6.19c-1.61-1.39-3.71-2.23-6-2.23-1.71,0-3.31.44-4.71,1.2-1.09.6-2.01,1.47-2.66,2.53-.55.9-.87,1.95-.87,3.08s.32,2.19.87,3.08c.65,1.06,1.57,1.93,2.66,2.53,1.4.77,3.01,1.2,4.71,1.2,3.28,0,6.18-1.6,7.96-4.07l.96,3.59Z"/></g><g><g><path class="cls-2" d="m176.95,9.2c-1.55-.67-2.81-.88-4.46-.88-4.67,0-8.15,3.25-8.15,7.99s3.27,8.1,8.1,8.1c1.42,0,2.79-.21,3.82-.65v-6.81h-4.62v-1.08h5.85v8.74c-1.52.57-3.38.9-5.05.9-5.57,0-9.44-3.76-9.44-9.18s4.02-9.13,9.64-9.13c1.57,0,3.12.26,4.46.83l-.15,1.16Z"/><path class="cls-2" d="m183.55,25.37h-1.16V5.87h1.16v19.49Z"/><path class="cls-2" d="m199.62,18.87c0,4.05-2.45,6.76-5.98,6.76s-5.98-2.73-5.98-6.78,2.48-6.81,6.11-6.81c3.43,0,5.85,2.73,5.85,6.83Zm-10.7.03c0,3.46,1.88,5.7,4.72,5.7s4.74-2.27,4.74-5.8-1.86-5.75-4.77-5.75-4.69,2.29-4.69,5.85Z"/><path class="cls-2" d="m204.83,22.61c0,.93-.05,2.24-.1,2.76h-1.13c.1-1.11.13-2.58.13-3.97V5.87h1.16v5.67c0,1.29-.03,3.12-.08,3.69h.05c.82-1.81,2.55-3.2,4.56-3.2,3.66,0,5.52,3.02,5.52,6.6,0,4-1.91,6.99-5.65,6.99-1.86,0-3.53-1.21-4.41-3.02,0,0-.05,0-.05,0Zm8.87-3.89c0-3.09-1.52-5.67-4.3-5.67-2.48,0-4.54,2.22-4.54,5.7s1.7,5.85,4.46,5.85,4.38-2.17,4.38-5.88Z"/><path class="cls-2" d="m226.6,22.87c-.57,1.44-2.32,2.68-4.43,2.68-2.55,0-4.33-1.5-4.33-3.74,0-2.81,2.5-4.2,7.01-4.2.57,0,1.29.03,1.78.08v-.57c0-2.24-.82-4.1-3.56-4.1-1.19,0-2.58.36-3.84,1.26l-.08-1.16c1.21-.72,2.78-1.08,4.05-1.08,3.25,0,4.54,1.93,4.54,5.03,0,1.68-.1,3.64-.1,4.51,0,1.44.08,2.86.15,3.79h-1.13c-.03-.21-.05-.69-.05-1.08,0-.33.03-1.06.05-1.42,0,0-.05,0-.05,0Zm-1.62-4.33c-3.69,0-5.9.98-5.9,3.27,0,1.65,1.34,2.76,3.22,2.76,1.68,0,3.25-.88,3.92-2.45.33-.77.41-2.06.41-3.48-.46-.08-1.01-.1-1.65-.1Z"/><path class="cls-2" d="m233.74,25.37h-1.16V5.87h1.16v19.49Z"/></g><polyline class="cls-1" points="233.74 7.21 233.74 25.37 163 25.37 163 7.21"/><rect class="cls-1" x="163" y="7.37" width="70.74" height="18"/></g></g></g></svg>