<?xml version="1.0" standalone="no"?>
<!DOCTYPE svg PUBLIC "-//W3C//DTD SVG 20010904//EN"
 "http://www.w3.org/TR/2001/REC-SVG-20010904/DTD/svg10.dtd">
<svg version="1.0" xmlns="http://www.w3.org/2000/svg"
 width="300.000000pt" height="168.000000pt" viewBox="0 0 300.000000 168.000000"
 preserveAspectRatio="xMidYMid meet">

<g transform="translate(0.000000,168.000000) scale(0.100000,-0.100000)"
fill="#000000" stroke="none">
<path d="M0 840 l0 -840 1500 0 1500 0 0 840 0 840 -1500 0 -1500 0 0 -840z
m840 255 c0 -13 -4 -27 -10 -30 -6 -4 -10 8 -10 30 0 22 4 34 10 30 6 -3 10
-17 10 -30z m100 -40 c-11 -20 -21 -25 -52 -25 -40 0 -45 -8 -28 -41 6 -11 7
-19 1 -19 -7 0 -31 50 -31 64 0 1 17 3 38 4 26 2 43 9 56 27 24 30 34 24 16
-10z m573 -21 c-3 -9 -11 -10 -30 -3 -32 12 -33 12 -27 -6 4 -8 10 -13 14 -10
5 3 10 1 12 -4 2 -5 13 -5 26 0 22 8 30 44 15 65 -5 5 0 1 10 -9 9 -11 17 -23
17 -28 0 -15 -39 -49 -55 -49 -18 0 -55 35 -55 53 0 6 5 19 11 27 9 13 10 12
5 -2 -3 -12 0 -18 10 -18 11 0 13 6 9 21 -7 20 -6 20 18 -1 14 -12 23 -28 20
-36z m757 14 c0 -10 3 -9 9 1 12 19 24 -4 16 -30 -4 -12 -10 -76 -14 -143 -4
-66 -9 -128 -12 -136 -3 -11 3 -14 22 -12 20 2 28 -2 32 -17 3 -15 0 -21 -10
-21 -14 0 -13 -4 3 -22 17 -21 17 -21 -8 1 -15 13 -25 28 -22 32 4 7 -3 7 -41
-1 -24 -5 -55 1 -55 11 0 5 5 7 10 4 6 -3 10 -1 10 4 0 6 7 11 15 11 8 0 19 9
25 19 12 24 13 84 1 77 -5 -3 -9 21 -10 54 0 45 3 62 14 66 8 4 15 10 15 16 0
5 -4 6 -10 3 -5 -3 -10 3 -10 14 0 12 5 21 10 21 6 0 5 6 -2 14 -7 8 -17 12
-21 9 -5 -3 -4 4 2 16 13 23 31 28 31 9z m-201 -165 c-1 -117 -4 -156 -10
-128 -14 72 -9 295 7 295 2 0 3 -75 3 -167z m-1305 137 c-12 -5 -25 -13 -28
-19 -4 -5 -21 -20 -39 -32 -30 -21 -30 -20 8 19 22 24 48 42 60 41 19 0 19 0
-1 -9z m84 -121 c14 0 14 -2 -2 -8 -17 -7 -19 -16 -17 -77 1 -38 0 -66 -3 -63
-11 10 -17 182 -9 224 8 40 8 40 11 -17 2 -46 6 -58 20 -59z m713 -32 c-3 -83
-1 -100 13 -110 11 -8 15 -19 10 -30 -4 -12 -10 -14 -18 -8 -6 5 -24 11 -40
13 -34 4 -48 28 -17 28 12 0 21 6 21 13 0 8 4 7 10 -3 6 -9 10 -10 10 -3 0 6
-4 14 -9 17 -10 6 -22 152 -14 172 3 8 13 14 22 12 14 -3 15 -17 12 -101z
m-135 -11 c0 -58 -4 -102 -8 -100 -14 9 -7 204 7 204 1 0 2 -47 1 -104z m531
71 c11 -11 21 -126 14 -157 l-8 -35 -7 50 c-4 28 -12 61 -17 74 -7 16 -6 28 2
37 8 10 8 14 0 14 -6 0 -11 -3 -11 -8 0 -4 -29 -5 -64 -2 -35 3 -63 3 -61 0 2
-3 -38 -5 -89 -6 -50 0 -79 1 -63 3 15 3 27 9 27 14 0 6 -4 7 -10 4 -5 -3 -18
-1 -27 5 -14 9 5 10 77 6 52 -3 117 -9 144 -12 46 -7 48 -6 37 14 -10 19 -9
20 20 12 18 -5 34 -11 36 -13z m-613 -24 c-3 -16 -18 -54 -33 -86 -24 -50 -26
-59 -12 -66 13 -8 13 -12 2 -25 -10 -12 -17 -14 -27 -5 -8 6 -14 8 -14 4 0 -4
-9 3 -19 16 -14 17 -16 26 -8 31 9 5 8 8 -2 8 -8 0 -12 3 -8 6 3 4 -3 29 -13
58 -28 72 -24 71 14 -4 19 -36 32 -69 29 -74 -3 -5 0 -7 8 -4 8 3 14 14 15 24
2 36 35 124 45 118 5 -3 9 2 9 10 0 9 5 16 10 16 6 0 8 -12 4 -27z m-114 -4
c0 -5 -4 -9 -10 -9 -5 0 -10 7 -10 16 0 8 5 12 10 9 6 -3 10 -10 10 -16z
m-440 -17 c0 -4 -16 -16 -34 -26 -19 -10 -45 -29 -57 -42 -24 -25 -46 -33 -32
-11 4 6 8 18 8 25 0 8 23 24 50 37 55 26 65 29 65 17z m291 -35 c-13 -13 -15
1 -4 30 7 17 8 17 11 -1 2 -10 -1 -23 -7 -29z m-211 12 c0 -4 6 -6 13 -3 8 3
25 0 40 -5 14 -6 29 -6 32 -2 2 5 17 11 32 13 24 3 28 0 30 -23 2 -23 -6 -32
-44 -54 -61 -36 -123 -93 -123 -114 0 -14 -2 -14 -10 -1 -8 12 -10 10 -10 -10
-1 -23 -2 -23 -15 8 -8 17 -17 32 -20 32 -3 0 -3 -4 0 -10 3 -5 1 -10 -5 -10
-21 0 -5 35 18 38 12 2 22 8 22 13 0 5 7 9 16 9 11 0 14 -5 9 -17 -5 -15 -4
-16 7 -5 11 11 10 16 -5 26 -16 13 -16 14 7 18 14 3 23 1 20 -3 -3 -5 0 -9 5
-9 6 0 11 4 11 9 0 5 11 12 25 15 34 9 31 24 -7 41 -35 14 -97 72 -65 59 9 -3
17 -10 17 -15z m793 -59 c-8 -9 -23 25 -22 50 0 22 2 20 13 -10 7 -19 11 -37
9 -40z m156 49 c1 17 48 7 74 -16 38 -35 9 -100 -53 -118 -14 -4 -22 -4 -18 0
4 4 2 19 -3 34 -10 24 -9 25 7 9 16 -16 18 -15 36 7 10 13 18 30 18 39 0 19
-32 35 -38 18 -2 -6 -10 -8 -19 -5 -13 5 -14 3 -4 -15 7 -12 17 -22 23 -22 6
0 8 -3 5 -7 -15 -15 -47 31 -46 66 0 29 2 32 9 16 5 -11 9 -14 9 -6z m-69 -66
c0 -27 -33 -63 -57 -63 -13 1 -10 5 10 16 30 16 36 56 16 97 -9 19 -7 18 10
-3 11 -14 21 -35 21 -47z m-609 25 c8 -15 8 -18 0 -14 -6 4 -16 16 -22 28 -8
15 -8 18 0 14 6 -4 16 -16 22 -28z m-48 -8 c-6 -22 -23 -38 -23 -21 0 17 12
41 20 41 5 0 6 -9 3 -20z m81 -27 c-10 -7 -23 -13 -28 -13 -6 0 -3 5 7 11 9 6
15 14 12 20 -3 5 1 6 11 2 16 -6 15 -7 -2 -20z m-68 -30 c-11 -11 -19 6 -11
24 8 17 8 17 12 0 3 -10 2 -21 -1 -24z m-430 15 c4 -7 4 -10 -1 -6 -4 4 -15 2
-24 -5 -14 -11 -14 -10 -2 6 16 20 18 21 27 5z m454 -28 c-6 -11 -16 -20 -22
-20 -6 0 -3 9 7 20 10 11 20 20 22 20 2 0 -1 -9 -7 -20z m306 -12 c0 -12 -8
-23 -16 -26 -12 -3 -12 -2 -3 8 6 7 9 19 6 26 -3 8 -1 14 5 14 5 0 9 -10 8
-22z m-466 2 c0 -5 -10 -10 -22 -10 -31 0 -58 -29 -58 -63 0 -28 1 -29 36 -24
30 5 34 4 24 -8 -15 -18 -52 -19 -68 -3 -21 21 -13 58 17 89 28 28 71 40 71
19z m380 -15 c0 -17 6 -25 18 -26 16 -1 16 -2 0 -6 -19 -5 -26 -53 -8 -53 6 0
10 -4 10 -10 0 -5 -9 -10 -20 -10 -16 0 -20 7 -20 35 0 21 -5 35 -12 36 -10 0
-10 2 0 6 6 2 12 16 12 29 0 13 5 24 10 24 6 0 10 -11 10 -25z m730 -60 c-7
-8 -17 -15 -22 -15 -5 0 -3 7 5 15 9 8 13 25 11 37 l-5 23 12 -22 c9 -18 9
-26 -1 -38z m-980 -5 c0 -36 -3 -40 -24 -40 -35 0 -43 20 -18 41 26 21 28 31
5 22 -11 -4 -14 -3 -9 5 4 7 16 12 27 12 16 0 19 -7 19 -40z m138 13 c2 -14
-4 -27 -17 -35 -12 -7 -21 -21 -21 -31 0 -10 -4 -15 -10 -12 -5 3 -10 29 -10
56 0 49 1 50 28 47 19 -2 28 -9 30 -25z m232 -3 c0 -16 5 -30 10 -30 6 0 10
14 10 30 0 17 5 30 10 30 6 0 10 -18 10 -39 0 -37 -2 -40 -27 -38 -25 2 -28 7
-31 40 -2 21 1 37 7 37 6 0 11 -13 11 -30z m170 20 c0 -4 -7 -10 -15 -14 -8
-3 -15 -17 -15 -31 0 -14 -4 -25 -10 -25 -5 0 -10 17 -10 39 0 34 3 39 25 39
14 0 25 -4 25 -8z m140 -5 c0 -8 -12 -21 -27 -29 l-28 -15 30 -1 c28 -1 29 -2
8 -12 -23 -11 -53 -5 -53 10 0 5 9 21 21 36 22 28 49 35 49 11z m116 6 c-19
-7 -19 -8 2 -13 32 -9 29 -46 -4 -54 -14 -4 -30 -2 -37 5 -8 8 -4 11 15 11 15
0 30 5 33 10 3 6 -3 10 -14 10 -11 0 -23 5 -26 10 -10 16 4 30 28 29 21 0 21
-1 3 -8z m371 -23 c-3 -7 -5 -2 -5 12 0 14 2 19 5 13 2 -7 2 -19 0 -25z"/>
<path d="M1067 633 c-4 -3 -7 -11 -7 -17 0 -6 5 -5 12 2 6 6 9 14 7 17 -3 3
-9 2 -12 -2z"/>
<path d="M1207 664 c-4 -4 -7 -17 -7 -28 0 -19 1 -19 17 -3 12 11 14 20 7 27
-6 6 -13 7 -17 4z"/>
</g>
</svg>
